<?xml version="1.0" encoding="utf-8"?>
<!-- Generator: Adobe Illustrator 16.0.4, SVG Export Plug-In . SVG Version: 6.00 Build 0)  -->
<!DOCTYPE svg PUBLIC "-//W3C//DTD SVG 1.1//EN" "http://www.w3.org/Graphics/SVG/1.1/DTD/svg11.dtd">
<svg version="1.1" id="Layer_1" xmlns="http://www.w3.org/2000/svg" xmlns:xlink="http://www.w3.org/1999/xlink" x="0px" y="0px"
	 width="60px" height="100px" viewBox="0 0 60 100" enable-background="new 0 0 60 100" xml:space="preserve">
<g>
	<path fill="#FFFFFF" d="M22.665,3.968c-9.564,0-16.777,6.216-16.777,14.46v76.604v1.196l1.177-0.212
		c0.271-0.049,6.705-1.247,13.222-5.857c1.787-1.265,3.676-2.864,5.45-4.864l0.851-0.006c6.091-0.034,12.454-0.434,17.721-3.102
		c6.506-3.297,9.805-9.455,9.805-18.303c0-11.212-5.424-16.579-10.668-21.77c-4.521-4.477-8.795-8.705-9.064-16.466l-0.011-0.261
		c-0.007-0.173-0.016-0.345-0.016-0.525c0-0.948,0.073-1.842,0.224-2.734c0.201-1.199,0.55-2.296,1.036-3.261
		c0.681-1.349,1.636-2.468,2.841-3.328c0.879-0.627,1.891-1.128,3.006-1.488c0.943-0.304,2.025-0.581,3.215-0.823l4.74-0.963
		l-4.734-0.995c-1.203-0.253-2.328-0.381-3.344-0.381c-1.352,0-2.65,0.179-3.871,0.534C34.632,6.738,29.167,3.968,22.665,3.968
		L22.665,3.968z"/>
	<path fill-rule="evenodd" clip-rule="evenodd" d="M23.251,42.279c3.287,6.222,6.027,14.925,6.027,19.311
		c0,8.885-5.215,23.16-18.67,23.16V25.684h17.78c-0.009-0.274-0.028-0.539-0.028-0.82c0-0.961,0.107-1.937,0.289-2.9H10.608v-4.65
		c0-4.626,4.667-8.625,12.057-8.625c5.185,0,9.021,1.972,10.853,4.745c0.9-0.706,1.895-1.269,2.979-1.682
		c-2.523-3.996-7.377-6.783-13.832-6.783c-9.67,0-15.777,6.241-15.777,13.46v76.604c0,0,25.644-4.616,25.644-31.667
		c-0.332-8.403-4.067-15.712-8.246-22.8C24.286,40.565,23.251,40.584,23.251,42.279z"/>
	<g>
		<path fill-rule="evenodd" clip-rule="evenodd" d="M42.742,42.825c-4.828-4.778-9.388-9.292-9.388-17.962
			c0-7.644,4.241-10.615,7.8-11.763c1.125-0.363,2.297-0.643,3.322-0.851c-0.941-0.198-2.045-0.36-3.139-0.36
			c-3.961,0-7.186,1.565-9.328,4.527c-1.659,2.294-2.649,5.452-2.649,8.446c0,9.46,5.153,14.747,10.138,19.859
			c4.887,5.014,9.939,10.198,9.939,19.162c0,6.221-2.672,16.604-20.355,16.828c-0.775,1.305-1.619,2.492-2.5,3.576
			c10.69-0.061,26.532-1.123,26.532-20.404C53.113,53.09,47.84,47.872,42.742,42.825z"/>
	</g>
	<g>
		<polygon fill-rule="evenodd" clip-rule="evenodd" fill="#F51337" points="44.84,34.07 32.846,31.667 40.924,22.481 		"/>
		<polygon fill-rule="evenodd" clip-rule="evenodd" fill="#F51337" points="20.851,29.264 32.846,31.667 24.767,40.853 		"/>
	</g>
</g>
</svg>
